<svg xmlns="http://www.w3.org/2000/svg" width="39.91" height="54.91" viewBox="0 0 39.91 54.91">
  <g id="그룹_1" data-name="그룹 1" transform="translate(-552 -286.423)">
    <g id="layer1" transform="translate(564.455 -708.485)">
      <path id="path9518-0-7" d="M15,1025.99l-11.242,9.923H6.006v12.818h6.745v-7.564H17.4v7.564h6.591v-12.818h2.248L15,1025.99h0Z" fill="none"/>
      <path id="path2078-7" d="M16.229,1024.91a4.783,4.783,0,0,0-.937.063,4.55,4.55,0,0,0-2.719,2.5,7.412,7.412,0,0,0-.437,4c.64,2.885,2.969,2.406,2.969,2.406,1.567-.1,2.719-1.937,2.719-1.937a7.483,7.483,0,0,0,1.469-3.281,3.148,3.148,0,0,0-1.156-3.219,3.892,3.892,0,0,0-1.906-.531ZM7.792,1026.1a3.206,3.206,0,0,0-1.812.875,6.327,6.327,0,0,0-1.5,4.25,4.045,4.045,0,0,0,.438,2.031,3.1,3.1,0,0,0,2.781,1.813,2.629,2.629,0,0,0,2.313-.812,4.06,4.06,0,0,0,.938-1.937,6.528,6.528,0,0,0-.187-4.437,3.922,3.922,0,0,0-1.75-1.594A2.434,2.434,0,0,0,7.792,1026.1Zm15.469,3.25a5.146,5.146,0,0,0-2.406.656c-2.175,1.011-2.937,3.969-2.937,3.969-.272,2.852,1.438,3.281,1.438,3.281,1.433.58,3.531-.687,3.531-.687a6.677,6.677,0,0,0,2.75-2.656,2.764,2.764,0,0,0-.062-3.531A2.982,2.982,0,0,0,23.26,1029.348Zm-10.469,5.344a6.366,6.366,0,0,0-2.156,1.031,3.45,3.45,0,0,1-2.375.375,5.464,5.464,0,0,0-5.094,2.281,3.847,3.847,0,0,0-.219,3.813,6.842,6.842,0,0,0,2.125,2.594,9.087,9.087,0,0,0,3.313,1.188c1.252.293,1.92,1.477,2.812,2.281a5.779,5.779,0,0,0,5.219,1.438,4.427,4.427,0,0,0,3.094-4.25,9.725,9.725,0,0,0-1.562-3.656,16.491,16.491,0,0,1-.219-2.844c.055-1.525-1.2-2.623-2.312-3.469a6.045,6.045,0,0,0-1.844-.719,1.89,1.89,0,0,0-.781-.063Zm11.75,2.688a4.754,4.754,0,0,0-.656.094,6.716,6.716,0,0,0-2.906,1.469,3.927,3.927,0,0,0-1.594,2.938,1.442,1.442,0,0,0,.156,1,2.692,2.692,0,0,0,2.219,1.594,6.33,6.33,0,0,0,3.688-1.312,6.223,6.223,0,0,0,1.75-2.094,2.567,2.567,0,0,0-.375-2.812,2.23,2.23,0,0,0-.406-.406,2.784,2.784,0,0,0-1.875-.469Z" fill="#f97316" fill-rule="evenodd"/>
    </g>
    <g id="layer1-2" data-name="layer1" transform="translate(549.455 -738.485)">
      <path id="path9518-0-7-2" data-name="path9518-0-7" d="M15,1025.99l-11.242,9.923H6.006v12.818h6.745v-7.564H17.4v7.564h6.591v-12.818h2.248L15,1025.99h0Z" fill="none"/>
      <path id="path2078-7-2" data-name="path2078-7" d="M16.229,1024.91a4.783,4.783,0,0,0-.937.063,4.55,4.55,0,0,0-2.719,2.5,7.412,7.412,0,0,0-.437,4c.64,2.885,2.969,2.406,2.969,2.406,1.567-.1,2.719-1.937,2.719-1.937a7.483,7.483,0,0,0,1.469-3.281,3.148,3.148,0,0,0-1.156-3.219,3.892,3.892,0,0,0-1.906-.531ZM7.792,1026.1a3.206,3.206,0,0,0-1.812.875,6.327,6.327,0,0,0-1.5,4.25,4.045,4.045,0,0,0,.438,2.031,3.1,3.1,0,0,0,2.781,1.813,2.629,2.629,0,0,0,2.313-.812,4.06,4.06,0,0,0,.938-1.937,6.528,6.528,0,0,0-.187-4.437,3.922,3.922,0,0,0-1.75-1.594A2.434,2.434,0,0,0,7.792,1026.1Zm15.469,3.25a5.146,5.146,0,0,0-2.406.656c-2.175,1.011-2.937,3.969-2.937,3.969-.272,2.852,1.438,3.281,1.438,3.281,1.433.58,3.531-.687,3.531-.687a6.677,6.677,0,0,0,2.75-2.656,2.764,2.764,0,0,0-.062-3.531A2.982,2.982,0,0,0,23.26,1029.348Zm-10.469,5.344a6.366,6.366,0,0,0-2.156,1.031,3.45,3.45,0,0,1-2.375.375,5.464,5.464,0,0,0-5.094,2.281,3.847,3.847,0,0,0-.219,3.813,6.842,6.842,0,0,0,2.125,2.594,9.087,9.087,0,0,0,3.313,1.188c1.252.293,1.92,1.477,2.812,2.281a5.779,5.779,0,0,0,5.219,1.438,4.427,4.427,0,0,0,3.094-4.25,9.725,9.725,0,0,0-1.562-3.656,16.491,16.491,0,0,1-.219-2.844c.055-1.525-1.2-2.623-2.312-3.469a6.045,6.045,0,0,0-1.844-.719,1.89,1.89,0,0,0-.781-.063Zm11.75,2.688a4.754,4.754,0,0,0-.656.094,6.716,6.716,0,0,0-2.906,1.469,3.927,3.927,0,0,0-1.594,2.938,1.442,1.442,0,0,0,.156,1,2.692,2.692,0,0,0,2.219,1.594,6.33,6.33,0,0,0,3.688-1.312,6.223,6.223,0,0,0,1.75-2.094,2.567,2.567,0,0,0-.375-2.812,2.23,2.23,0,0,0-.406-.406,2.784,2.784,0,0,0-1.875-.469Z" fill="#f97316" fill-rule="evenodd"/>
    </g>
  </g>
</svg>
